<?xml version="1.0" encoding="utf-8"?>
<!-- Generator: Adobe Illustrator 22.0.1, SVG Export Plug-In . SVG Version: 6.00 Build 0)  -->
<svg version="1.1" id="Layer_1" xmlns="http://www.w3.org/2000/svg" xmlns:xlink="http://www.w3.org/1999/xlink" x="0px" y="0px"
	 viewBox="0 0 545.8 107.1" style="enable-background:new 0 0 545.8 107.1;" xml:space="preserve">
<g>
	<g>
		<path d="M0.8,72.7l6.9-1.1V7.9L0,6.9L0.4,0h48.2l-1.2,19.3L37.8,19L37.2,6.9H22.3v28.7h6.5l1.5-6.6l6.7,0.2V49h-6.7l-1.6-6.8h-6.5
			v30.4h15l1.4-13.2l10.1,0.3l0.8,20.1h-49L0.8,72.7z"/>
		<path d="M54,79.9l0.3-5.9l5.4-1.1V32.7l-6.3-0.6v-6l15.8-2.3l1.2,3.4v2.3c3.8-4,8.4-6.4,14.3-6.4c8.6,0,15,5.2,15,15.5v34.2
			l5.7,1.1l-0.3,5.9H86.3V41.6c0-5.5-2-8.6-7-8.6c-1.7,0-2.9,0.3-4.2,0.8c-0.8,0.7-1.6,1.7-2.3,2.6V73l5.7,1.1L78.1,80H54V79.9z"/>
		<path d="M356.1,79.9l0.2-5.9l5.4-1.1V32.7l-6.3-0.6v-6l15.8-2.3l1.2,3.4v2.3c3.8-4,8.4-6.4,14.3-6.4c8.6,0,15,5.2,15,15.5v34.2
			l5.7,1.1l-0.3,5.9h-18.7V41.6c0-5.5-2-8.6-7-8.6c-1.7,0-2.9,0.3-4.2,0.8c-0.8,0.7-1.6,1.7-2.3,2.6V73l5.7,1.1l-0.4,5.9h-24.1V79.9
			z"/>
		<path d="M135.2,78.8c-2.2,0.9-6.1,1.9-11.2,1.9c-6.7,0-12.9-3-12.9-12.8V32.7l-6.4-1l0.3-7l7.2-0.3l3.1-10.7l9.2-0.4v11.5h9.9
			l-0.7,7l-9.1,1V68c0,2.9,1.6,4.8,4.6,4.8h5.4L135.2,78.8z"/>
		<path d="M509.5,79.9l0.2-5.8l5.1-1.2V32.7l-6-0.6v-6l16.4-2.3l1.1,3.9V29c4.3-3.2,10.1-5.3,17.1-5.3l2.4,2.1L544.1,41l-9-0.3
			l-0.9-8.1c-2.1,0.3-4.1,0.9-5.8,2.1V73l5.7,1.2l-0.4,5.8h-24.2V79.9z"/>
		<path d="M274,79.9l0.3-5.8l5.1-1.2V32.7l-6-0.6v-6l16.4-2.3l1.1,3.9V29c4.3-3.2,10.1-5.3,17.1-5.3l2.4,2.1L308.5,41l-9-0.3
			l-0.9-8.1c-2.1,0.3-4.1,0.9-5.8,2.1V73l5.7,1.2l-0.4,5.8H274V79.9z"/>
		<path d="M139.2,79.9l0.3-5.8l5.1-1.2V32.7l-6-0.6v-6l16.4-2.3l1.1,3.9V29c4.3-3.2,10.1-5.3,17-5.3l2.4,2.1L173.8,41l-9-0.3
			l-0.9-8.1c-2.1,0.3-4.1,0.9-5.8,2.1V73l5.7,1.2l-0.4,5.8h-24.2V79.9z"/>
		<path d="M191,55.4c0,9.6,4.2,17,12.5,17c4.3,0,7.7-0.9,11.7-2.8l2.3,5.3c-4.1,3.3-10.1,5.8-17.6,5.8c-14.6,0-23-12.6-23-28.8
			c0-13.8,6.1-28.9,22.8-28.9c14.6,0,20.1,13.5,20.1,28.5l-1.4,3.6L191,55.4z M190.8,49l16.8-0.8c-0.3-6.7-1.7-17.3-8.3-17.3
			c-1.6,0-2.7,0.3-4.7,1.3C191.9,36.8,190.8,45.1,190.8,49z"/>
		<path d="M423.4,55.4c0,9.6,4.2,17,12.5,17c4.3,0,7.7-0.9,11.7-2.8l2.3,5.3c-4.1,3.3-10.1,5.8-17.6,5.8c-14.6,0-23-12.6-23-28.8
			c0-13.8,6.1-28.9,22.8-28.9c14.6,0,20.1,13.5,20.1,28.5l-1.4,3.6L423.4,55.4z M423.2,49l16.8-0.8c-0.3-6.7-1.7-17.3-8.3-17.3
			c-1.6,0-2.7,0.3-4.7,1.3C424.3,36.8,423.2,45.1,423.2,49z"/>
		<path d="M325.8,55.4c0,9.6,4.2,17,12.5,17c4.3,0,7.7-0.9,11.7-2.8l2.3,5.3c-4.1,3.3-10.1,5.8-17.6,5.8c-14.6,0-23-12.6-23-28.8
			c0-13.8,6.1-28.9,22.8-28.9c14.6,0,20.1,13.5,20.1,28.5l-1.4,3.6L325.8,55.4z M325.6,49l16.8-0.8c-0.3-6.7-1.7-17.3-8.3-17.3
			c-1.6,0-2.7,0.3-4.7,1.3C326.7,36.8,325.5,45.1,325.6,49z"/>
		<path d="M490,79.9l-1.4-4.8c-3.7,3.5-7.3,5.6-12.9,5.6c-8.6,0-16.3-4.3-16.3-16.2V31.3l-6.3-0.6v-5.3l18.2-2.1l1.4,4.8v34.8
			c0,6.1,2.5,9.3,7.4,9.3c1.4,0,3.2-0.2,4.8-0.8c0.9-0.9,1.8-2,2.5-3.1v-37l-6.5-0.6v-5.3l18.4-2.1l1.4,4.8v44.8l5.7,1.1l-0.7,5.9
			C505.7,79.9,490,79.9,490,79.9z"/>
	</g>
	<path d="M247.1,72.7c-2.9,0-5.2-0.5-7-1.5V35.9c0.8-1.2,1.7-2.3,2.6-3.3c1.7-0.6,3.2-0.8,5-0.8c7.5,0,8.8,7.6,8.8,21.2
		c0,13.1-2,16.7-2.5,18.2C251.9,72.2,249.7,72.7,247.1,72.7z M269.5,50.6c0-16.9-5-27.5-17.5-27.5c-8.3,0-12.2,4.8-13.8,6.8V28
		l-1.4-4.8l-16.3,2.3v5.8l6.3,0.8v68.2l-5.4,1.1l-0.3,5.7h24.1l0.4-5.7l-5.7-1.1V78.7c2.3,1.3,5.5,2.1,9,2.1
		C269.3,80.8,269.5,60.1,269.5,50.6z"/>
</g>
</svg>
