<?xml version="1.0" encoding="utf-8"?>
<!-- Generator: Adobe Illustrator 22.0.1, SVG Export Plug-In . SVG Version: 6.00 Build 0)  -->
<svg version="1.1" id="Layer_1" xmlns="http://www.w3.org/2000/svg" xmlns:xlink="http://www.w3.org/1999/xlink" x="0px" y="0px"
	 viewBox="0 0 423.6 84" style="enable-background:new 0 0 423.6 84;" xml:space="preserve">
<style type="text/css">
	.st0{fill:#ED1C24;}
	.st1{fill:#FFFFFF;}
</style>
<rect class="st0" width="423.6" height="84"/>
<g>
	<g>
		<polygon class="st1" points="16.7,68.2 53.1,68.2 53.1,60.8 25.8,60.8 25.8,45.1 44.5,45.1 44.5,37.6 25.8,37.6 25.8,28.4 
			25.4,24 52.8,24 52.8,16.5 16.2,16.5 16.7,21.1 		"/>
		<polygon class="st1" points="64.7,68.2 78.7,47.4 92.3,68.2 100.6,68.2 100.6,66.4 84.6,42.3 100.3,18.4 100.3,16.5 92.7,16.5 
			79.8,36.5 66.9,16.5 58.6,16.5 58.6,18.4 73.6,41.3 56.9,66.4 56.9,68.2 		"/>
		<g>
			<path class="st1" d="M190.7,21.7v46.6h9.2V32.2L229,68.3h8V16.7h-9.2v35.6l-28.5-35.6 M104.8,68.3h9.2V52.8h10.2
				c10,0,19.1-5.8,19.1-18.3c0-11.5-7.6-17.9-18.2-17.9h-20.9l0.6,5.1L104.8,68.3L104.8,68.3z M114,45.4V29.1l-0.5-5h9.7
				c6.8,0,11.2,2.8,11.2,10.6c0,7.2-4.4,10.8-11.3,10.8L114,45.4L114,45.4z M174.5,56.8l4.6,11.5h8.4v-1.8l-20.4-50.2h-8.6
				l-20.8,50.2v1.8h8.3l4.9-11.5L174.5,56.8L174.5,56.8z M153.7,49.4l9.1-24l8.9,24H153.7z M199.3,16.7h-9.2l0.6,5 M284.6,68.2h9
				V16.5h-9V68.2z M368.3,68.3V32.2l29.1,36.1h8V16.7h-9.2v35.6l-28.5-35.6h-9.2l0.6,5v46.6H368.3L368.3,68.3z M260.7,15.5
				c-10.9,0-18.8,5.3-18.8,14.6c0,9.5,10.6,13.3,16.6,15.7c5.9,2.3,10.7,4,10.7,7.9c0,4.7-4.1,7.6-9.8,7.6c-5,0-10-2.2-13.7-4.8
				h-2.8l-0.9,6.5c4.2,3.4,11.1,5.9,17.5,5.9c10.7,0,19-6,19-15.6c0-8.7-8.6-11.9-14.5-14.3c-6.5-2.6-13-4.7-13-9.4
				c0-4,3.7-6.2,9.8-6.2c3.9,0,8.4,1.4,10.6,3.1h2.9l0.9-7C272.2,17.6,267,15.5,260.7,15.5"/>
			<g>
				<path class="st1" d="M326.4,15.8c-15.5,0-27.5,11.6-27.5,26.6c0,15.1,11.7,26.7,27.5,26.7c15.6,0,27.5-11.6,27.5-26.7
					C353.8,27.2,341.9,15.8,326.4,15.8z M326.4,61.9c-10.4,0-18.5-8.2-18.5-19.5c0-11.3,7.6-18.8,18.2-18.8
					c10.3,0,18.7,7.6,18.7,18.8C344.7,54.4,336.1,61.9,326.4,61.9z"/>
			</g>
			<polygon points="346.9,16.5 329.7,33.7 340.5,33.7 357.7,16.5 			"/>
		</g>
	</g>
</g>
</svg>
