<?xml version="1.0" encoding="utf-8"?>
<!-- Generator: Adobe Illustrator 21.1.0, SVG Export Plug-In . SVG Version: 6.00 Build 0)  -->
<svg version="1.1" id="Capa_1" xmlns="http://www.w3.org/2000/svg" xmlns:xlink="http://www.w3.org/1999/xlink" x="0px" y="0px"
	 viewBox="0 0 497 77" style="enable-background:new 0 0 497 77;" xml:space="preserve">
<style type="text/css">
	.st0{fill:#262324;}
	.st1{fill:#CA2036;}
	.st2{fill:#F5DB34;}
	.st3{fill:#B2272D;}
</style>
<g>
	<path class="st0" d="M7,57.6h6.7v3.7H7V57.6z M35.2,55.8l-2.9,4.1l-2.8-4.1h-2.2v2.7h-9.4v-1h8.4v-1.7H16.2v2.7h-0.9v-2.7H5.3v2.7
		H3.5v1.8h1.8v2.8h10.1v-2.8h0.9V63h10.1v-1.6h-8.4v-1.1h9.4v2.7H29v-4.3l2.8,4.2h1l2.9-4.2v4.2h1.7v-2.7h1.7v-1.8h-1.7v-2.7H35.2z"
		/>
	<g>
		<path class="st1" d="M38.7,36c1.1-1.6,0-4.3-2.7-3c-2.2,1.1-3.4,0-3.7-0.4c0.3-0.5,0.8-0.9,1.7-0.9c1.7,0.1,1.7-1.6,0.8-2.2
			c-1-0.6-0.3-1.4-0.3-1.4s-1.4,0.3-0.6,1.8c0.5,0.9-1.4-0.5-2.9-0.4c1.9-2,0.4-6.4,1.7-4.8c1.8,2.2,3.2,0.3,3.2,0.3s-1.7,0.6-2-1.4
			c-0.3-2-3.1-3.1-4-0.3c-0.8,2.3-2.4,2.4-2.9,2.4c-0.1-0.5-0.1-1.2,0.6-1.9c1.3-1.1,0.1-2.3-1-2.1C25.5,22,25.4,21,25.4,21
			s-0.7,1.2,0.9,1.7c1,0.3-1.3,0.6-2.3,1.7c-0.1-2.7-4.2-4.8-2.2-4.6c2.8,0.3,2.5-2.1,2.5-2.1s-0.7,1.6-2.4,0.4
			c-1.6-1.1-4.3,0-3,2.6c1.1,2.2,0.1,3.3-0.3,3.7c0,0,0,0,0,0c-0.5-0.3-0.9-0.8-0.9-1.7C17.7,21,16,21,15.4,22
			c-0.6,1-1.4,0.3-1.4,0.3s0.3,1.4,1.8,0.6c0.9-0.5-0.5,1.4-0.4,2.8c-2-1.8-6.4-0.4-4.8-1.6c2.2-1.8,0.3-3.2,0.3-3.2s0.6,1.6-1.4,2
			c-2,0.3-3.1,3-0.3,4c2.3,0.8,2.4,2.4,2.4,2.9c-0.5,0.1-1.2,0.1-1.9-0.6c-1.1-1.3-2.4-0.1-2.1,1c0.3,1.1-0.8,1.2-0.8,1.2
			S8,32,8.5,30.5c0.3-1,0.6,1.3,1.7,2.3C7.5,32.9,5.4,37,5.6,35c0.3-2.8-2.1-2.5-2.1-2.5s1.6,0.7,0.4,2.4c-1.1,1.6,0,4.3,2.7,3
			c2.2-1.1,3.4,0,3.7,0.4c-0.3,0.5-0.8,1-1.7,0.9c-1.7-0.1-1.7,1.6-0.8,2.2c1,0.6,0.3,1.4,0.3,1.4s1.4-0.3,0.6-1.8
			c-0.5-0.9,1.4,0.5,2.8,0.4c-1.8,2-0.4,6.4-1.6,4.8c-1.8-2.2-3.2-0.3-3.2-0.3s1.6-0.6,2,1.4c0.3,2,3.1,3.1,4,0.3
			c0.8-2.4,2.4-2.4,2.9-2.4c0.1,0.5,0.1,1.2-0.6,1.9c-1.3,1.1-0.1,2.4,1,2.1c1.1-0.3,1.2,0.8,1.2,0.8s0.7-1.2-0.9-1.7
			c-1-0.3,1.3-0.6,2.3-1.7c0.1,2.7,4.3,4.8,2.2,4.6c-2.8-0.3-2.5,2.1-2.5,2.1s0.7-1.6,2.4-0.4c1.6,1.1,4.3,0,3-2.6
			c-1.1-2.2,0-3.4,0.4-3.7c0.5,0.3,0.9,0.8,0.9,1.7c-0.1,1.7,1.6,1.7,2.2,0.8c0.6-1,1.4-0.3,1.4-0.3s-0.3-1.4-1.8-0.6
			c-0.9,0.5,0.5-1.4,0.4-2.9c2,1.9,6.4,0.4,4.8,1.7c-2.2,1.8-0.3,3.2-0.3,3.2s-0.6-1.6,1.4-2c2-0.3,3.1-3,0.3-4
			c-2.4-0.8-2.4-2.4-2.4-2.9c0.5-0.1,1.2-0.1,1.9,0.6c1.1,1.3,2.4,0.1,2.1-1c-0.3-1.1,0.8-1.2,0.8-1.2s-1.2-0.7-1.7,0.9
			c-0.3,1-0.6-1.3-1.7-2.3c2.7-0.1,4.8-4.3,4.6-2.2c-0.3,2.8,2.1,2.5,2.1,2.5S37.5,37.6,38.7,36"/>
		<path class="st0" d="M32.1,35.4c0,6-4.8,10.9-10.8,10.9c-6,0-10.8-4.9-10.8-10.9s4.8-10.9,10.8-10.9
			C27.3,24.6,32.1,29.4,32.1,35.4"/>
		<path class="st2" d="M31.6,35.4c0,5.7-4.6,10.4-10.3,10.4S11,41.1,11,35.4S15.6,25,21.3,25S31.6,29.7,31.6,35.4"/>
		<path class="st0" d="M31,35.4c0,5.4-4.3,9.8-9.7,9.8c-5.4,0-9.7-4.4-9.7-9.8c0-5.4,4.3-9.8,9.7-9.8C26.7,25.7,31,30,31,35.4"/>
		<path class="st2" d="M24.7,29.2c0.7,0.3,1-0.2,1-0.2c0.3-0.3,0.1,0.5-0.6,0.8C24.4,30.1,24,28.9,24.7,29.2 M25.3,28.2
			c0.2,0,0.3,0.1,0.3,0.3c0,0.2-0.1,0.3-0.3,0.3c-0.2,0-0.3-0.1-0.3-0.3C25,28.3,25.1,28.2,25.3,28.2 M23.6,28.8
			c0,0-0.4,0.1-0.6-0.2l-0.1,0.2V30c0,0,0.1,0.3,0.3,0.3c0.2,0,0.2-0.4,0.2-0.4V29c0,0,0.2,0.1,0.3,0.3l0,0c0.2,0.5,0.6,0.9,1.2,0.9
			c0.7,0,1.3-0.7,1.3-1.5c0-0.8-0.6-1.5-1.3-1.5C24.2,27.3,23.6,28,23.6,28.8L23.6,28.8"/>
		<path class="st2" d="M26,29.7v0.5H27c0,0,0.8,0,0.8-0.6c0-0.6-0.8-1.2-1.2-1.3c0,0,0,1.4,0,1.4H26z"/>
		<path class="st2" d="M27.8,35.2c0.2,0,0.3-0.1,0.3-0.3v-2.8c0,0,0-0.1,0-0.1l-0.6-1.1c-0.1-0.1-0.2-0.2-0.4-0.1
			c-0.1,0.1-0.2,0.2-0.1,0.4l0.6,1v2.8C27.5,35.1,27.6,35.2,27.8,35.2"/>
		<path class="st2" d="M28.5,32.3v2.9c0,0.2,0.1,0.3,0.3,0.3c0.2,0,0.3-0.1,0.3-0.3v-3c0-0.1,0-0.1,0-0.1l-0.6-1
			c-0.1-0.1-0.2-0.2-0.4-0.1c-0.1,0.1-0.2,0.2-0.1,0.4L28.5,32.3z"/>
		<path class="st2" d="M29.5,32.5v3c0,0.2,0.1,0.3,0.3,0.3c0.2,0,0.3-0.1,0.3-0.3v-3.1c0-0.1,0-0.1,0-0.2l-0.6-0.9
			c-0.1-0.1-0.3-0.2-0.4-0.1c-0.1,0.1-0.2,0.3-0.1,0.4L29.5,32.5z"/>
		<path class="st2" d="M30.5,37.3c0-0.3-0.1-0.5-0.1-0.5c-0.2-0.6-0.8-1.2-1.8-1.2c-1.5,0-2.1,1-2.2,1.3c0,0,0,0.1,0,0.1
			c0,0.1,0.1,0.2,0.2,0.3c0,0,0.2,0,0.3-0.2c0.1-0.3,0.5-1,1.7-1c0.5,0,0.8,0.1,1,0.3c-0.2-0.1-0.5-0.2-0.8-0.2
			c-1.2,0-1.6,0.8-1.7,1c0,0,0,0.1,0,0.1c0,0.1,0.1,0.2,0.2,0.3c0.1,0,0.2,0,0.3-0.2c0.1-0.2,0.4-0.7,1.2-0.7c0.1,0,0.2,0,0.3,0
			c0.9,0.2,0.4,1.7,0.4,1.7H29v-0.9c0,0,0-0.4-0.6-0.4c-0.6,0-0.6,0.4-0.6,0.4V39l0.2,0.4c0.3,0.4-0.3,0.4-0.3,0.4l-0.6,0
			c-0.3,0.5,0.1,0.7,0.1,0.7h0.6c0.2,0.7,0.9,0.2,0.9,0.2v-0.3h-0.3v-0.8l0.6-0.5v-0.4h0.2V39h0.4c0.7-0.6,0.8-1.2,0.8-1.6
			c0,0,0,0,0-0.1C30.5,37.3,30.5,37.3,30.5,37.3"/>
		<path class="st2" d="M24.7,40.5c-0.6,0.5-1.1,1.1-1,1.2c0.1,0.1,0.7-0.2,1.3-0.7c0.6-0.5,1.1-1.1,1-1.2
			C25.9,39.6,25.3,39.9,24.7,40.5"/>
		<path class="st2" d="M23.7,42.5c0.1,0.1,0.9-0.2,1.7-0.9c0.8-0.6,1.4-1.3,1.3-1.4c-0.1-0.1-0.9,0.2-1.7,0.9
			C24.2,41.7,23.6,42.4,23.7,42.5"/>
		<path class="st2" d="M26.9,41.3c-0.3,0-0.6,0.2-0.6,0.6c0,0.3,0.2,0.6,0.6,0.6c0.3,0,0.6-0.2,0.6-0.6
			C27.4,41.5,27.2,41.3,26.9,41.3"/>
		<path class="st2" d="M25.6,42.1c-0.4,0-0.6,0.3-0.6,0.6c0,0.4,0.3,0.6,0.6,0.6c0.4,0,0.6-0.3,0.6-0.6
			C26.2,42.4,25.9,42.1,25.6,42.1"/>
		<path class="st2" d="M24,42.8c-0.5,0-0.8,0.4-0.8,0.8c0,0.5,0.4,0.8,0.8,0.8c0.5,0,0.8-0.4,0.8-0.8C24.8,43.1,24.4,42.8,24,42.8"
			/>
		<path class="st2" d="M21.5,41.6h-0.1h-0.1h-0.2l-0.3-0.7h0.5h0.1h0.4L21.5,41.6z M21.3,40.1L21.3,40.1c0,0-1.8,0-1.8,1.2
			s0.6,2.8,1.1,3.1c0.4,0.3-0.5-1.6-0.4-2.2c0.1-0.6,0.9-0.5,0.8,1.7c0,0,0,0.6,0.4,0.6l0-0.2v0.2c0.4,0,0.4-0.6,0.4-0.6
			c-0.2-2.3,0.7-2.3,0.8-1.7c0.1,0.6-0.8,2.4-0.4,2.2c0.4-0.3,1.1-1.8,1.1-3.1S21.3,40.1,21.3,40.1"/>
		<path class="st2" d="M26.1,33.4c0,0.6-0.6,1-1.3,1s-1.3-0.5-1.3-1c0-0.6,0.6-1,1.3-1S26.1,32.9,26.1,33.4 M16.5,33.4
			c0-0.6,0.6-1,1.3-1s1.3,0.5,1.3,1c0,0.6-0.6,1-1.3,1S16.5,34,16.5,33.4 M25.4,35c-1.4,0-1.6-0.2-1.6-0.2s-0.2-0.2-0.3,0
			c-0.1,0.2,0.1,0.5,0.3,0.5v0.4H25c0,0,0.5,0.1,0.5,0.5v1.2c0,0,0,0.4-0.3,0.4c-0.3,0-0.3-0.3-0.3-0.3s-0.1-0.2-0.4-0.2v-0.2
			c0,0,0.5,0,0.5-0.4c0-0.4-0.6-0.6-0.6-0.6h-0.6c0,0-0.1,0.4-0.4,0.5v0.1h0.4v0.2l-0.3,0.2h-2.2h-2.2l-0.3-0.2v-0.2h0.4v-0.1
			c-0.3-0.1-0.4-0.5-0.4-0.5h-0.6c0,0-0.6,0.2-0.6,0.6c0,0.4,0.5,0.4,0.5,0.4v0.2c-0.3,0-0.4,0.2-0.4,0.2s0,0.3-0.3,0.3
			c-0.3,0-0.3-0.4-0.3-0.4v-1.2c0-0.4,0.5-0.5,0.5-0.5h1.2v-0.4c0.2-0.1,0.4-0.3,0.3-0.5c-0.1-0.2-0.3,0-0.3,0S18.5,35,17.2,35
			S15.9,34,15.9,34h0.3c0.3,0.4,0.8,0.6,1.4,0.6c0.9,0,1.6-0.5,1.6-1.2c0-0.7-0.7-1.2-1.6-1.2c-0.5,0-1,0.2-1.3,0.5H16
			c0-0.5,0.7-1.1,1.9-1.1s2.4,0.5,2.4,1.7c0,1.3-1.7,2-1.3,2.7c0.4,0.7,2.3,0.6,2.3,0.6h0c0,0,1.9,0.1,2.3-0.6
			c0.4-0.7-1.3-1.4-1.3-2.7c0-1.3,1.2-1.7,2.4-1.7c1.2,0,1.9,0.6,1.9,1.1h-0.3c-0.3-0.3-0.8-0.5-1.3-0.5c-0.9,0-1.6,0.5-1.6,1.2
			c0,0.7,0.7,1.2,1.6,1.2c0.6,0,1.1-0.2,1.4-0.6h0.3C26.7,34,26.8,35,25.4,35 M24,39.6c-0.3,0-0.6-0.4-0.3-0.7v-0.1h-0.9V39h-0.4
			v-0.2h-0.6V39h-0.2v-0.2h-0.1h-0.1h-0.2V39h-0.2v-0.2h-0.6V39h-0.4v-0.2h-0.9v0.1c0.3,0.3,0,0.7-0.3,0.7c-0.3,0-0.8-0.2-0.8-1.1
			c0-0.9,1-1,1-1h2.6l0,0v0h2.6c0,0,1,0,1,1C24.8,39.5,24.3,39.6,24,39.6 M15.8,33.4H16c0,0,0,0,0,0c0,0.1,0,0.2,0.1,0.3h-0.2V33.4z
			 M26.8,33.4v0.4h-0.2c0-0.1,0.1-0.2,0.1-0.3c0,0,0,0,0,0H26.8z M27.2,33.8c0-2.6-1.5-2.6-1.5-2.6h-4.5h-4.5c0,0-1.5,0-1.5,2.6
			s1.4,3.1,1.4,3.1v1.7h0.4c0,0,0,1.7,1.5,1.7c1.5,0,1.6-0.9,1.6-0.9h1h0h1c0,0,0.1,0.9,1.6,0.9s1.5-1.7,1.5-1.7h0.4v-1.7
			C25.9,36.9,27.2,36.3,27.2,33.8"/>
		<path class="st2" d="M24.4,33.4c0,0.3,0.3,0.5,0.6,0.5c0.4,0,0.6-0.2,0.6-0.5s-0.3-0.5-0.6-0.5C24.7,32.9,24.4,33.2,24.4,33.4"/>
		<path class="st2" d="M23.9,33c-0.2,0-0.3,0.1-0.3,0.2c0,0.1,0.1,0.2,0.3,0.2c0.2,0,0.3-0.1,0.3-0.2C24.2,33.1,24.1,33,23.9,33"/>
	</g>
	<rect x="22.1" y="38" class="st2" width="0.4" height="0.6"/>
	<rect x="22.9" y="38" class="st2" width="0.4" height="0.6"/>
	<rect x="23.7" y="38" class="st2" width="0.4" height="0.6"/>
	<g>
		<path class="st2" d="M16.9,29c0,0,0.4,0.5,1,0.2c0.7-0.3,0.3,0.9-0.5,0.6C16.8,29.6,16.6,28.7,16.9,29 M17.3,28.2
			c0.2,0,0.3,0.1,0.3,0.3c0,0.2-0.1,0.3-0.3,0.3c-0.2,0-0.3-0.1-0.3-0.3C17,28.3,17.1,28.2,17.3,28.2 M17.7,30.3
			c0.5,0,1-0.4,1.2-0.9v0c0.1-0.2,0.3-0.3,0.3-0.3V30c0,0,0,0.4,0.2,0.4c0.2,0,0.3-0.3,0.3-0.3v-1.2l-0.1-0.2
			c-0.2,0.3-0.6,0.2-0.6,0.2h0c0-0.8-0.6-1.4-1.3-1.4c-0.7,0-1.3,0.7-1.3,1.5C16.5,29.6,17,30.3,17.7,30.3"/>
		<path class="st2" d="M15.6,30.3h0.9v-0.5h-0.4c0,0,0-1.4,0-1.4c-0.5,0.1-1.2,0.7-1.2,1.3C14.9,30.2,15.6,30.3,15.6,30.3"/>
		<path class="st2" d="M15.6,30.8c-0.1-0.1-0.3,0-0.4,0.1L14.6,32c0,0,0,0.1,0,0.1v2.8c0,0.2,0.1,0.3,0.3,0.3c0.2,0,0.3-0.1,0.3-0.3
			v-2.8l0.6-1C15.8,31.1,15.7,30.9,15.6,30.8"/>
		<path class="st2" d="M13.6,32.2v3c0,0.2,0.1,0.3,0.3,0.3c0.2,0,0.3-0.1,0.3-0.3v-2.9l0.6-1c0.1-0.1,0-0.3-0.1-0.4
			c-0.1-0.1-0.3,0-0.4,0.1l-0.6,1C13.6,32.1,13.6,32.1,13.6,32.2"/>
		<path class="st2" d="M12.8,35.8c0.2,0,0.3-0.1,0.3-0.3v-3l0.6-0.9c0.1-0.1,0.1-0.3-0.1-0.4c-0.1-0.1-0.3-0.1-0.4,0.1l-0.6,0.9
			c0,0,0,0.1,0,0.2v3.1C12.5,35.6,12.6,35.8,12.8,35.8"/>
		<path class="st2" d="M15.5,39.9l-0.6,0c0,0-0.5,0.1-0.3-0.4l0.2-0.4v-1.4c0,0,0-0.4-0.6-0.4c-0.6,0-0.6,0.4-0.6,0.4v0.9h-0.3
			c0,0-0.5-1.5,0.4-1.7c0.1,0,0.2,0,0.3,0c0.9,0,1.1,0.5,1.2,0.7c0.1,0.2,0.2,0.2,0.3,0.2c0.1,0,0.2-0.1,0.2-0.3c0,0,0-0.1,0-0.1
			c-0.1-0.3-0.5-1-1.7-1c-0.3,0-0.6,0.1-0.8,0.2c0.2-0.2,0.5-0.3,1-0.3c1.2,0,1.6,0.7,1.7,1c0.1,0.2,0.3,0.2,0.3,0.2
			c0.1,0,0.2-0.1,0.2-0.3c0,0,0-0.1,0-0.1c-0.1-0.3-0.7-1.3-2.2-1.3c-1.1,0-1.6,0.6-1.8,1.2c0,0-0.1,0.2-0.1,0.5c0,0,0,0.1,0,0.1
			c0,0,0,0,0,0.1c0,0.4,0.2,1,0.8,1.6h0.4v-0.2h0.2v0.4l0.6,0.5v0.8h-0.3v0.3c0,0,0.7,0.5,0.9-0.2h0.6
			C15.4,40.6,15.9,40.4,15.5,39.9"/>
		<path class="st2" d="M18.9,41.6c0.1-0.1-0.3-0.7-1-1.2c-0.6-0.5-1.2-0.9-1.3-0.7c-0.1,0.1,0.3,0.7,1,1.2
			C18.2,41.4,18.8,41.8,18.9,41.6"/>
		<path class="st2" d="M15.9,40.2c-0.1,0.1,0.5,0.8,1.3,1.4c0.8,0.6,1.6,1,1.7,0.9c0.1-0.1-0.5-0.8-1.3-1.4
			C16.8,40.5,16,40.1,15.9,40.2"/>
		<path class="st2" d="M15.7,41.3c-0.3,0-0.6,0.2-0.6,0.6c0,0.3,0.2,0.6,0.6,0.6c0.3,0,0.6-0.2,0.6-0.6C16.3,41.5,16,41.3,15.7,41.3
			"/>
		<path class="st2" d="M17,42.1c-0.4,0-0.6,0.3-0.6,0.6c0,0.4,0.3,0.6,0.6,0.6s0.6-0.3,0.6-0.6C17.7,42.4,17.4,42.1,17,42.1"/>
		<path class="st2" d="M18.6,42.8c-0.5,0-0.8,0.4-0.8,0.8c0,0.5,0.4,0.8,0.8,0.8c0.5,0,0.8-0.4,0.8-0.8
			C19.5,43.1,19.1,42.8,18.6,42.8"/>
		<path class="st2" d="M18.2,33.4c0-0.3-0.3-0.5-0.6-0.5c-0.4,0-0.6,0.2-0.6,0.5s0.3,0.5,0.6,0.5C17.9,33.9,18.2,33.7,18.2,33.4"/>
		<path class="st2" d="M18.7,33.5c0.2,0,0.3-0.1,0.3-0.2c0-0.1-0.1-0.2-0.3-0.2s-0.3,0.1-0.3,0.2C18.4,33.4,18.5,33.5,18.7,33.5"/>
	</g>
	<polygon class="st2" points="21.3,38 20.9,38 20.9,38.6 21.3,38.6 21.3,38.6 21.7,38.6 21.7,38 	"/>
	<rect x="20.1" y="38" class="st2" width="0.4" height="0.6"/>
	<rect x="19.3" y="38" class="st2" width="0.4" height="0.6"/>
	<rect x="18.5" y="38" class="st2" width="0.4" height="0.6"/>
	<g>
		<path class="st2" d="M21.3,28.6c0.3,0,0.5,0.3,0.5,0.6c0,0.4-0.2,0.6-0.5,0.6c-0.3,0-0.5-0.3-0.5-0.6C20.8,28.9,21,28.6,21.3,28.6
			 M21.3,28.2c0.4,0,0.8,0.5,0.8,1.1c0,0.6-0.4,1.1-0.8,1.1s-0.8-0.5-0.8-1.1C20.5,28.7,20.9,28.2,21.3,28.2 M21.3,26.7
			c0.3,0,0.5,0.2,0.5,0.5c0,0.3-0.2,0.5-0.5,0.5c-0.3,0-0.5-0.2-0.5-0.5C20.8,26.9,21,26.7,21.3,26.7 M19.8,28.4v1
			c0,0,0.1,1.1,1.5,1.1h0h0c1.3,0,1.5-1.1,1.5-1.1v-1c0.3-0.9,0.9-0.7,0.9-0.7l0.1-0.4c-0.3-0.6-1.7-0.5-1.7-0.5
			c-0.3-0.4-0.8-0.3-0.9-0.3c0,0-0.6,0-0.9,0.3c0,0-1.3-0.1-1.7,0.5l0.1,0.4C18.9,27.6,19.5,27.5,19.8,28.4"/>
		<path class="st3" d="M380.3,40c-2.3-2.9-4.8-5.6-7.4-8.1v13.2L380.3,40z M372.8,47.4v6.3l12.5,3.2l-6,7.2h-0.4
			c-3.3-1.6-11.9-4.2-15.1-5.3c0.2-1.1,0.6-2.4,0.6-4.5V31.6c4.8-1.9,10.7-4.5,13.8-6.1h0.3c1.7,1.5,8.7,9,10.3,11L372.8,47.4z
			 M483.9,42.5c0-1.6,0.3-3.9,0.6-5.2c-2.7-1.9-5.9-3.5-9-4.8v21.4l8.4,3.3V42.5z M492.2,58.1c-3.5,1.7-7.7,4.2-10.9,6.3h-0.4
			c-3.4-2-10.8-4.9-14.8-5.6c0.3-1.2,0.9-2.4,0.9-4.5v-23c4-1.8,8.4-3.7,12-5.8h0.6c4.5,1.8,10.7,4.6,13.4,6.2
			c-0.2,1.1-0.8,4-0.8,6.1V58.1z M86.9,20.9c4.4-1.9,8.9-3.5,13.1-6.1l1,2L98.6,18v36.6l5,2.4l-6.3,7.4H97c-2.5-1.7-6.4-3.5-8.3-4.8
			c0.4-1.7,0.9-3.2,0.9-5.3v-32L88,23L86.9,20.9z M191.2,42.5c0-1.6,0.3-3.9,0.6-5.2c-2.7-1.9-5.9-3.5-9-4.8v21.4l8.4,3.3V42.5z
			 M199.5,58.1c-3.5,1.7-7.7,4.2-10.9,6.3h-0.4c-3.6-1.7-10.9-4.6-14.8-5.6c0.3-1.2,0.8-2.4,0.8-4.5v-23c4-1.8,8.4-3.7,12-5.8h0.6
			c4.5,1.8,10.7,4.6,13.4,6.2c-0.2,1.1-0.8,4-0.8,6.1V58.1z M336.4,55.2l3.5,1.1V16.6l-3.5,2.6V55.2z M316.8,28.5v13
			c0,7-5.6,10.5-8.9,12.4c4.6,1.2,9.5,3.2,12.2,4.2V16.8l-3.5,2.6C316.6,22.6,316.8,25.9,316.8,28.5 M321.7,58.7
			c-3,3.7-5.1,8.4-6,11l-0.9-0.1c-4.4-3.9-11.5-7.9-15.7-7.9c-7.5,0-10,5-9.9,8.4l-0.9-0.4c-1.3-4.3,1.7-16.5,14.1-16.5
			c1,0,2.2,0.1,3.3,0.4c1.2-3.1,1.9-7.9,1.9-13.2v-1.6l-5.8-0.3l-0.2-0.6c1-2.1,3.4-6.1,5.9-6.1h0.1v-6.4c0-3,0.4-5.5,1.4-7.6
			c-0.2,0.1-0.7,0.1-1,0.1c-3.2,0-7.3-1.5-10.7-1.5c-2.3,0-4.3,1.2-5.1,3l-0.8-0.1c-0.9-4.9,3-10.5,8.6-10.5c4.3,0,6.9,1.7,10,2
			c3,0.4,5.8-1.1,7.1-1.7l1.1,0.9c-1.4,1.9-1.5,4.3-1.6,7.9l12.5-9h0.5c1.5,0.4,5.8,3.8,6.9,6.7v2.1c7.5-5.6,11.5-7.4,12.4-8.8h0.5
			c1.5,0.4,5.3,3.8,6.9,6.8v39.4l4.9,2c-2.2,1.9-5.4,5.1-7.5,7.5h-0.4c-2.4-2-5.2-4-7.1-5.8c0.3-1,0.6-2.2,0.6-4.3V26.4
			c0-2.2,1.8-6.4,3-7.5c-1.4-0.7-5.2-2-8.1-2.7v40.5c-2.4,2.5-4.5,5-6.4,7.6h-0.4c-2.7-1.7-6.9-4.2-8.5-5.6c0.2-0.9,0.6-2.5,0.6-4.4
			V19.2c0-2-2.7-3.8-5.3-3.3V58.7z M46.2,38.4L46,37.7c1-1.5,3.5-6,6-6v-4.1c0-4.1,2-8.4,4.9-11.2c-2.2-0.4-4.2-0.9-6.5-0.9
			c-2.3,0-4.3,2.1-5.1,3.9l-0.8-0.1c-0.9-4.9,2.1-10.5,8.9-10.5c5,0,8.2,1.6,12.4,1.6c1.4,0,2.9-0.3,4.2-0.9
			c0.4-0.2,0.8-0.5,1.1-0.7l0.6,1.2C67,13.2,60,19.7,60,28.4v14.9c0,7.8-5.1,10-8.1,11.8l-1.4-0.6c1.4-3,1.5-6.9,1.5-12.5v-3.3
			L46.2,38.4z M70.9,17.3v14.3h3.4V16.9C73.2,16.9,72,17,70.9,17.3 M62.7,53.5c0.2,0,0.4-0.1,0.7-0.1c3.7,0,7.3,0.8,11,1.9v-17h-3.4
			v2C70.9,47.7,66.4,51.3,62.7,53.5 M79.4,69.6c-4.6-3.6-10.7-7.9-17.9-7.9c-7.9,0-15.8,5-15.7,8.4l-0.9-0.4
			c-1.1-3.8,4.3-13,13.8-15.5c2.4-2.9,3.5-6.8,3.5-12.6v-12c0-9.7,9.4-19.3,16.9-19.3c2.5,0,6.4,1.6,9,3.1l-5.9,7.3
			c-2-1.9-4.2-3.2-6.3-3.5v14.6h4.7l-1.6,6.7H76v17.6c3,1,6,2.2,10,3.8c-2.3,3.1-4.1,6.4-5.6,9.9L79.4,69.6z M201.3,20.9
			c4.4-1.9,8.9-3.5,13.1-6.1l1,2L213,18v36.6l4.7,2.3l-5.9,7.4h-0.4c-2.5-1.7-6.3-3.5-8.2-4.8c0.4-1.7,0.8-3.3,0.8-5.3v-32l-1.6,0.7
			L201.3,20.9z M276.4,40c-2.3-2.9-4.8-5.6-7.4-8.1v13.2L276.4,40z M268.9,47.4v6.3l12.5,3.2l-6,7.2H275c-3.3-1.6-12.1-4.2-15.2-5.3
			c0.2-1.1,0.8-2.7,0.8-4.5V31.6c4.8-1.9,10.7-4.5,13.8-6.1h0.3c1.7,1.5,8.7,9,10.3,11L268.9,47.4z M402,57.4l-2.9,7.3h-0.9
			c-0.9-0.8-2.7-2.2-4.4-2.2c-1.7,0-3.7,0.4-4.8,1.7h-0.9c0-2.2,0.8-4.6,2-6.6c1.4-2.4,4.3-2.7,5.9-2.4c1.1-1.9,3.4-5.3,4.3-7.1
			l-5.6-10.3c-0.5-0.9-2.9-3.7-4.6-4.7l5.9-7.6h0.6c2.9,0.1,5.9,6.7,7.7,9.9l2.4,4.8l3.8-6.5l-4.2-1.9l3.5-6.4
			c1.5,0.4,3,1.1,4.7,1.5c2,0.6,4.2-0.6,5.2-1.9l0.7,0.4c-0.2,2-1,5.4-3.2,7.6c-1,1-3.6,1.9-5.1,1.2l-4.6,7.9l6.6,12.7l5.4,2.2
			l-7,7.7h-1.1c-1.2-0.7-2.9-3-4.2-4.8l-6.1-10.1l-3.7,5.6C398.5,55.4,400.5,56.4,402,57.4 M153,69.6h-0.9c-4.4-3.9-13.6-8-20.3-8
			c-7.5,0-11.2,5-11.2,8.4l-0.9-0.4c-1.3-4.3,3-16.5,16.6-16.5c6.3,0,13.1,3,22.1,5.6c3.5-3.6,5.2-7.5,5.2-10.6
			c0-7.7-5.1-10.5-12.8-12l-3.4-0.7l-1.2,1.5l3.7,0.9c7.2,1.4,11.5,3.9,11.5,10c0,3.9-1.5,6.6-3.2,8.6c0.1-0.5,0.1-1,0.1-1.6
			c0-4.4-3-7.9-12.8-9.9l-4.4-0.9c-3.9,5.2-6.2,6.9-9,6.9c-1.7,0-2.4-0.6-2.4-1.4c0-0.8,0.6-1.3,1.5-1.3c0.9,0,1.4,1.1,2.2,1.1
			c1.5,0,3.4-1.9,6.5-5.7l-3-0.7c-7.6-1.7-11.2-4.6-11.2-9.2c0-3,1.2-4.6,2.4-5.1c1.6,3.8,5.5,5.6,13,7.2l3.7,0.8l1.1-1.7l-3.6-0.7
			c-10.8-2.3-13.9-5.4-13.9-12.1c0-7.4,6.3-13.6,16.5-13.6c6.3,0,11.3,2,15.8,5c1.7-2.5,3.3-3.5,5.3-3.8c1.7-0.2,2.5,0.2,2.5,1
			c0.2,0.9-0.4,1.4-1.2,1.5c-0.9,0.1-1.5-1-2.3-0.9c-1.1,0.2-2,1.5-2.6,2.2c-3.7,4.8-7.2,9.5-9.6,13.4c10.7,2,17.3,5.6,17.3,15.5
			C170.1,52.5,155.3,65,153,69.6 M367.7,21.6l8.4-8.2l3.5,4.8c-2.5,1.7-7.9,4.4-11,5.7L367.7,21.6z M154.9,21.5
			c-3.2-3.8-8.4-9.2-15.6-9.2c-4.4,0-6.9,1.3-6.9,5.1c0,3.1,2.9,6.1,10.8,7.6l8.1,1.7L154.9,21.5z M463.9,28.6l-3.5,8.5h-0.7
			c-1.2-2.7-5.7-3.8-7.9-4v20.6l10.4,3.2c-1.2,1.3-5,5.2-6.8,7.5H455c-2.5-2-10-4.7-13.4-5.6c0.4-1.1,0.8-2.4,0.8-4.6V31.6
			c3.7-1.9,7.5-3.9,11.1-6.1h0.5C456.6,25.9,461.1,27.4,463.9,28.6 M439.6,56.9l-7.8,7.6c-2.1-2.2-5-4.3-7.4-5.9
			c0.1-0.9,0.9-2.2,0.9-4.3l-0.1-20.3l-3.5-2.5l6.8-6.3h0.4l7.6,5c-0.9,1.1-2.5,3.4-2.5,5.1v19.3L439.6,56.9z M436.3,16.4
			c-1.2,0.7-2.7,3-5,5.7h-0.4l-5.3-3.7l-1.4-0.7v-0.4c1.5-1.3,3.8-4,5.1-5.8h0.5l5.1,3.6l1.4,0.9V16.4z M247.4,42.7
			c0-1.5,0.2-4.2,0.6-5.5l-7.6-6.6l-2,1.2v22.1l9,3.3V42.7z M256.1,57.7c-2.2,0.6-7.9,4-11.3,6.4h-0.3c-3.1-1.4-12.2-4.8-15.4-5.3
			c0.4-1.3,0.8-2.6,0.8-4.5v-21c1.4-0.4,6.8-2.3,9-3.3c-3.1-2.6-6.8-5.1-8.4-6.4l4.4-8.6c5.5,4.5,17.1,13.7,22,16.3
			c-0.4,1.4-0.8,4.5-0.8,6.3V57.7z"/>
	</g>
</g>
</svg>
